<?xml version="1.0" encoding="UTF-8"?>
<!DOCTYPE svg PUBLIC "-//W3C//DTD SVG 1.1//EN" "http://www.w3.org/Graphics/SVG/1.1/DTD/svg11.dtd">
<!-- Creator: CorelDRAW -->
<svg xmlns="http://www.w3.org/2000/svg" xml:space="preserve" width="164.691mm" height="159.92mm" version="1.1" style="shape-rendering:geometricPrecision; text-rendering:geometricPrecision; image-rendering:optimizeQuality; fill-rule:evenodd; clip-rule:evenodd"
viewBox="0 0 1403.99 1363.31"
 xmlns:xlink="http://www.w3.org/1999/xlink"
 xmlns:xodm="http://www.corel.com/coreldraw/odm/2003">
 <defs>
  <style type="text/css">
   <![CDATA[
    .fil0 {fill:white}
   ]]>
  </style>
 </defs>
 <g id="Layer_x0020_1">
  <metadata id="CorelCorpID_0Corel-Layer"/>
  <g id="_2209663034176">
   <path class="fil0" d="M705.52 935.73c-8.28,-4.21 -100.55,-96.64 -103.59,-103.68l206.23 0.83 -102.64 102.85zm161.22 -593.24l-0.11 63.14c-6.22,-2.37 -4.96,-2.49 -11.01,-5.51 -2.74,-7.22 -8.9,-11.25 -16.47,-18.8 -6.73,-6.7 -11.58,-11.54 -18.31,-18.29 -8.83,-8.86 -29.65,-27.25 -35.72,-37.81l78.14 -0.1c2.43,7.44 3.5,6.72 3.48,17.37zm-15.63 59.13c11.76,24.74 15.75,3.22 15.55,48 -0.09,20.9 -0.02,41.82 -0.02,62.71 0,27.63 5.15,37.28 -9.96,51.86l-61.51 61.31c-21,21.06 -17.31,23.31 -37.22,23.51 -34.6,0.35 -91.79,2.81 -124.13,-1.3 -1.19,-3.4 0.73,-0.49 -3.3,-5.61l-69.2 -69.19c-10.42,-10.4 -19.21,-13.21 -19.44,-31.64 -0.42,-33.05 0.41,-66.42 0.13,-99.55 -0.26,-30.22 3.92,-26.54 39.2,-61.54 16.53,-16.4 32.53,-34.4 49.54,-49.73 13.1,-11.8 74.33,-5.8 95.67,-5.81 57.25,-0 42.36,-2.39 73.15,28.32 8.9,8.88 15.97,15.88 24.86,24.78 5.66,5.67 19.33,21.8 26.68,23.87zm-203.1 259.64c4.2,-5.47 -7.45,-4.4 7.87,-4.49l106.15 0.08c-12.15,18.78 -39.11,33.92 -48.48,52.88 -18.1,4.66 -24.32,-9.11 -35.86,-20.63 -6.98,-6.97 -22.46,-25.02 -29.68,-27.84zm153.17 49.85l-78.91 0.73c8.83,-13.84 32.88,-34.4 44.67,-46.67 11.48,-11.95 13.68,-8.53 35.24,-8.4 15.85,0.09 31.72,-0.22 47.57,0.17 2.33,7.61 -40.64,39.16 -45.98,51.88l-2.59 2.29zm62.71 -62.9l-79.28 -0.61 82 -80.16 0.11 65.11 -0.39 10.34 -2.44 5.32zm15.69 -15.28c-4.67,-4.36 -4.77,3.26 -4.93,-13.46 -0.3,-46.47 -5.79,-56.73 12.56,-74.39 8.93,-8.6 33.69,-35.96 42.52,-40.32l-0.14 76.89c-8.02,5.02 -17.18,16.22 -25.6,24.64 -8.37,8.38 -20.34,17.17 -24.42,26.64zm50.64 -139.49c-23.05,13.05 -33.63,36.92 -55.52,50.46l0.27 -113.75c20.33,12.69 27.92,34.12 48.46,43.61 1.26,4.39 -0.17,-0.43 2.23,4.34 0.46,0.91 1.65,2.88 2.38,4.76 2.39,6.21 0.93,5.31 2.18,10.58zm1.1 -25.11c-12.75,-3.46 -18.38,-13.5 -26.67,-21.86 -34.05,-34.34 -30.07,-21.03 -30.02,-64.77l0.41 -33.79c1.64,-6.83 0.04,-3.78 4.06,-7.53 1.32,4.29 -0.84,-0.15 2.2,4.37l19.21 19.67c8.01,8.01 14.34,13.93 22.37,22.05 15.71,15.89 1.55,47.57 8.45,81.87zm-546.18 337.97l0.72 -146.06c13.07,5.74 61.31,58.09 74.44,71.19 12.83,12.79 23.79,23.76 36.59,36.57 11.05,11.06 26.82,24.95 35.48,36.36l-147.23 1.94zm98.98 -193.85l95.58 94.92c3.97,3.47 5.63,-5 2.44,5.39l-102.57 0.16c-5.48,-14.98 -2.86,-86.04 -1.77,-105.38 12.8,1.72 1.3,-0.59 6.32,4.89zm73.56 44.8c18.3,-1.67 71.97,-4.9 83.19,5.97 11.33,10.98 39.16,37.17 46.33,48.01 -14.7,1.26 -29.61,0.6 -44.38,0.64 -20.4,0.06 -28.59,3.74 -40.08,-7.96 -12.47,-12.7 -36.33,-34.08 -45.07,-46.66zm-15.45 -89.35c8.3,2.47 74.68,69.93 82.19,80.19l-62.59 0.84c-24.18,0 -20.01,-5.82 -19.8,-29.41 0.15,-17.19 -0.2,-34.44 0.2,-51.62zm-63.02 -63.18c9.4,3.7 35.91,33.46 45.25,42.32 13.03,12.37 10.05,13.06 9.87,35.83 -0.13,16.22 -0.01,32.48 -0.03,48.7 -13.47,-5.91 -37.17,-33.13 -47.85,-43.9 -10.73,-10.82 -7.45,-16.19 -7.37,-36.13 0.06,-15.61 -0.11,-31.22 0.13,-46.82zm-0.07 -18.51c4.19,-11.36 16.03,-19.06 25.31,-28.63 9.6,-9.91 16.72,-20.99 29.38,-26.84l0.48 111.72c-8.91,-3.79 -4.15,-0.07 -16.2,-12.6 -13.68,-14.22 -32.27,-28.83 -38.98,-43.64zm0.41 -16.67c-2.98,-77.58 -4.8,-70.9 23.64,-99.45 6.82,-6.84 24.01,-26.29 31.14,-29.08l0.46 61.8c-0.07,17.33 -4.94,19.05 -13.37,27.3 -9.64,9.44 -30.79,33.27 -41.87,39.43zm62.91 -62.97l-0.4 -64.07c0.04,-23.57 11.21,-18.82 72.02,-17.87l9.65 0.3c-4.67,9.38 -73.54,78.66 -81.26,81.64zm-150.21 -97.14l-0.36 5.61c-7.34,0.53 1.63,-1.69 -7.48,0.61l0.9 -147.15c14.34,-4.13 127.44,-2.78 148.15,-1.23 -1.47,8.88 0.64,2.52 -4.8,5.52 -2.66,6.28 0.07,0.35 -4.6,6.49 -3.6,4.72 -2.26,1.09 -4.97,7.23 -13.71,7.26 -50.48,48.2 -64.35,61.96 -11.33,11.25 -53.09,55.73 -62.48,60.95zm19.2 17.15c17.83,-9.24 30.19,-35.75 48.48,-42.47 0.26,20.33 0.1,40.67 0.1,61.01 0.01,55.74 3.26,35.05 -55.67,96.01 -8.12,8.4 -7.56,11.15 -18.51,14.87 -0.14,-28.17 -5.23,-84.54 3.27,-107.07l22.33 -22.35zm-9.94 142.02c21.15,-9.89 37.2,-42.07 58.14,-53.09l0.4 142.13c-17.78,-6.9 -24.33,-26.47 -40.69,-34.69 -1.44,-3.95 0.55,-0.72 -3.42,-5.88 -5.65,-7.34 -22.45,-20.08 -28.47,-30.86l12 -13.09c3.37,-5.07 0.77,0.69 2.04,-4.52zm5.29 63.77c7.22,15.22 46.5,45.1 51.28,54.92 4.48,9.23 2.23,86.94 1.72,103.05 -19.07,-10.62 -44.74,-49.47 -63.49,-58.61 -1.23,-4.57 1.1,0.56 -2.18,-4.25 -7.3,-10.7 -6.61,-2.37 -8.3,-15.69l0.32 -94.73c12.45,6.35 11.7,13.07 20.65,15.31zm153.28 263.04c-4.18,-8.85 -6.76,-9.89 -13.73,-16.77 -10.14,-10 -40.59,-38.8 -45.35,-47.24 20.17,-0.52 40.62,-0.19 60.82,-0.2 29.02,-0.01 36.19,-5.47 52.09,11.25 19.65,20.67 41.41,42.67 61.71,61.66l-105.95 0.5c-0.69,-3.76 1.02,-2.1 -3.66,-6.25 -3.94,-3.49 -2.39,-2.11 -5.94,-2.96zm154.84 2.28c-6.21,3.23 -5.6,3.98 -11.73,6.7l-71.27 -71.75 144.22 -1.42c-9.33,19.46 -31.33,27.94 -41.37,46.6 -4.28,1.76 0.72,-1.52 -5.84,3.6l-14.01 16.28zm33.3 -11.79c15.34,-8.61 35.66,-34.34 49.68,-47.89 10.78,-10.42 24.16,-6.82 43.49,-6.81l57.49 0.21c9.81,3.33 2.37,-2.23 8.25,5.63 -9.34,2.99 -51.31,48.71 -61.39,59.22 -7.44,7.75 -7.51,9.08 -22.44,9.29 -9.46,0.13 -19.39,-0.19 -28.94,-0.19 -20.01,-0 -40.54,0.49 -60.49,-0.27 5.02,-10.7 10.19,-10.09 14.35,-19.19zm100.62 -475.87c1.41,10.1 -6.09,7.33 -17.69,7.14l-47.42 -0.13c-15.11,-1.04 -8.91,-2.59 -19.61,-8.14 -3.17,-8.06 -15.42,-17.74 -21.79,-24.11 -7.48,-7.47 -15.69,-13.57 -20.41,-22.6 17.47,-1.34 71.05,-4.72 81.96,5.49 7.18,6.72 36.15,39.87 44.96,42.36zm-89.13 0.16c-0.64,7.9 2.61,4.32 -4.55,6.72l-107.02 -0.06c2.86,-7.51 3.28,-6.04 6.94,-12.62 15.8,-7.07 31.22,-38.71 50.44,-42.5 5.3,0.57 33.09,30.33 40.4,37.8l13.8 10.66zm-107.35 -8.64c-24.72,13.8 1,18.94 -93.35,15.04 7.75,-15.23 22.42,-18.92 29.87,-35.02 15.8,-3.62 8.25,-20.07 38.08,-20.04 19.58,0.02 40.56,-0.48 59.98,0.52 -7.11,16.65 -27.61,24.39 -34.58,39.5zm-73.48 -32.02c-14.39,7.41 -35,32.42 -47.65,45.02 -13.55,13.49 -33.31,35.77 -46.66,45.96 -3.79,4.72 5.45,3.99 -6.09,3.87l-0.12 -102.4 105.61 -0.46c-5.74,10.19 -0.78,2.96 -6.39,6.6l1.31 1.41zm25.95 -27.04l-104.55 -0.53c5.57,-11.31 18.13,-16 24.67,-28.89l13.81 -11.17c4.53,-4.68 7.09,-7.24 11.72,-11.8 7.22,-7.11 16.65,-20.33 27.27,-21.8 16.47,-2.27 79.58,-1 97.82,0.42 -10.91,16.28 -66.07,64.67 -70.74,73.77zm272.36 562.69c6.12,-10.76 139.54,-143.08 146.04,-145.68l0.15 14.84 0.02 120.19 -0.18 10.68 -132.18 0.21 -13.84 -0.24zm-49.67 -93.54c5.8,-11.65 16.23,-19.03 25.52,-28.27 13.76,-13.68 68.04,-70.04 76.78,-73.68l0.08 102.06 -102.38 -0.1zm121.52 -113.07c0,-15.41 8.02,-19.09 15.15,-26.12 11.91,-11.75 49.96,-51.78 58.77,-56.28l0.42 92.85c0,14.09 -7.07,16.71 -14.38,23.89 -12.71,12.47 -50.73,53.83 -59.83,56.78l-0.12 -91.12zm101.65 -213.94c6.69,2.72 97.63,93.26 102.57,101.59 -5.5,11.12 -39.63,42.15 -50.17,52.67 -10.71,10.7 -40.99,44.97 -52.92,49.72l0.52 -203.98zm-101.38 31.48c8.32,2.54 67.07,63.22 72.17,70.11 -3.97,8.75 -63.96,68.28 -72.4,72.1l0.23 -142.21zm-693.71 70.11c6.69,-10.23 93.62,-96.98 102.84,-101.86l0.17 204.62c-8.37,-4.18 -6.68,-4.11 -14.98,-12.63 -17.61,-18.07 -82.77,-80 -88.03,-90.13zm767.52 -29.41c-9.68,-3.23 -52.09,-49.68 -63.21,-60.39 -16.08,-15.49 -10.87,-22.39 -10.87,-51.29 0,-19.62 -1.08,-42.48 0.53,-61.69 9.55,4.19 52.49,50.02 63.09,60.29 16.04,15.53 10.73,23.54 10.72,51.04 -0,20.43 0.58,41.72 -0.26,62.04zm-98.57 -97.2l-92.62 -92.42c-5.07,-3.43 -2.35,3.28 -5.43,-6.26l104.12 0.76 -0.24 102.72c-10.83,-1.27 -2.65,0.67 -5.83,-4.8zm-291.66 -117.27c7.62,-14.21 52.73,-51.99 69.08,-72.88 15.81,7.04 59.22,58.78 75.09,72.53l-11.45 0.66 -122.81 0.04 -9.92 -0.35zm383.87 66.22c-8.81,-3.52 -56.85,-54.75 -67.85,-65.73 -10.9,-10.88 -62.68,-59.01 -65.73,-67.87 -3.83,-2.3 -3.11,-0.49 -7.14,-4.9l35.9 -3.1c25.1,0 96,-1.69 111.64,1.3 2.56,18 3.82,139.41 -1.9,147.22 -5.13,-3.63 -2.28,-1.73 -4.91,-6.92zm-201.5 -65.91c-13.85,0 -17.22,-8 -25.2,-16.03 -7.13,-7.18 -12.45,-12.45 -19.59,-19.61 -12.99,-13 -25.14,-25.85 -37.22,-38.02 17.7,-2.36 44.97,-0.77 63.72,-0.77 27.76,-0.01 35.25,-5.28 51.05,10.88 13.2,13.5 52.29,48.7 60.53,63.14l-93.29 0.41zm-214.03 -101.68c6.69,-10.53 95.32,-99 104.72,-103.73 16.36,15.95 94.72,90.61 101.82,103.91l-10.79 0.39 -180.29 0.1 -15.46 -0.68zm-248.42 484.5c4.77,2.7 2.23,-0.89 7.24,4.46l0.96 200.25 179.91 0.04c23.54,-0.29 18.55,-0.11 22.08,3.82 16.94,17.48 132.73,135.57 142.52,139.87l140.09 -139.57c6.82,-6.5 12.65,-4.55 24.52,-4.44l177.48 -0.18c3,-19.58 0.9,-119.69 0.9,-152.77 0,-8.71 0.07,-17.44 -0.02,-26.15 -0.27,-25.24 -0.32,-18.34 3.32,-20.64 11.85,-19.78 132.2,-126.46 139.69,-143.94 -9.2,-12.77 -101.81,-102.84 -120.99,-122.01 -14.51,-14.51 -20.67,-12.32 -20.42,-39.91 0.45,-49.2 2.09,-140.18 -0.27,-182.07 -26.87,-2.73 -139.77,-1.04 -179.73,-0.64 -31.13,0.31 -26.31,-3.77 -42.76,-20.16 -40.98,-40.83 -79.99,-81.66 -121.81,-121.42 -8.79,4.64 -107.06,105.14 -122.59,120.62 -14.16,14.12 -13.29,21.23 -39.3,21.02 -37.57,-0.31 -163.21,-2.48 -184.47,0.82l-0.24 179.16c0.31,30.96 -4.45,26.87 -20.57,43.01 -20.67,20.69 -39.48,39.37 -60.13,60.06 -18.1,18.12 -46.15,42.83 -60.81,61.51 3.81,8.64 57.91,60.29 67.81,70.19 11.6,11.6 62.7,59.85 67.59,69.06z"/>
   <path class="fil0" d="M695.94 527c7.55,0.38 22.65,2.54 27.4,-2.14 5.2,-7.77 38.38,-154.76 38.38,-168.12l-18.57 -0.67 -24.1 104.5c-3.05,12.8 -3.83,26.58 -11.31,34.57l-31.05 -138.95 -18.23 -0.43c-0.74,14.1 31.33,153.04 37.48,171.25z"/>
   <g>
    <path class="fil0" d="M294.7 1088l2.23 -10.02c6.92,2.58 6.16,9.45 7.16,17.39l17.54 82.42 -44.9 0.94 17.96 -90.72zm-53.63 144.87l-0.73 8.88 19.34 0.53c-0.02,-7.46 -1.82,-0.53 0.57,-6.8 4.33,-11.36 -0.1,-0.87 3.83,-6.31l6.93 -30.3 55.84 -0.13 10.23 44.51 20.94 0.22c0.62,-14.19 -36.45,-175.95 -43.3,-196.58l-31.55 -0.67 -42.1 186.66z"/>
    <path class="fil0" d="M479.36 1206.84c-2.66,-3.49 -2.23,5.43 -2.8,-7.33l-0.36 -18.9 -18.53 0.66 0.95 36.36c0.54,32.2 60.52,38.66 85.22,21.32 32.18,-22.6 9.52,-67.2 -9.61,-85 -11.06,-10.29 -20.01,-18.74 -31,-29.1 -9.72,-9.16 -24.41,-18.73 -24.65,-37.76 -0.28,-21.16 16.67,-29.14 38.46,-23.56 20.24,5.18 14.91,25.35 16.83,46.73l21.83 0.42c2.39,-48.86 -4.6,-71.67 -56.64,-68.29 -45.88,2.98 -55.5,48.11 -32.45,77.35 9.11,11.55 19.86,20.25 31.34,31.42 6.69,6.5 26.78,25.13 32.16,33.05 30.76,45.25 -48.25,61.08 -50.74,22.63z"/>
    <path class="fil0" d="M1362.29 1241.37l-0.92 -191.8 -20.54 -1.67 -1.02 85.2c-13.07,5.27 -45.13,4.11 -59,1.02l-1.35 -85.76 -18.7 0.07 -0.64 192.79 19.33 1.18 0.47 -89.58c13.84,-2.73 47.76,-3.54 59.19,0.84l1 88.16 22.17 -0.47z"/>
    <path class="fil0" d="M1144.05 1218.7l0.89 -28.84 -18.13 0.29c-0.5,3.03 -0.73,8.16 -1,9.43 -2.48,11.51 2.35,-5.38 -1.15,4.4l-2.17 3.57c-0.83,25.41 -37.7,24.77 -48.39,12.79 -10.59,-11.86 -7.12,-139.7 -1.9,-148.18 8.98,-14.6 49.44,-15.83 50.1,9.89 3.49,3.67 2.64,-5.85 3.39,7.72l0.33 20.91 17.41 1.04c3.72,-12.06 1.37,-26.7 1.23,-39.32 -5.56,-31.53 -51.7,-37.94 -78.3,-24.64 -28.64,14.33 -20.69,58.64 -20.69,94.25 0,36.19 -7.23,81.13 16.8,97.6 24.58,16.85 77.38,9.7 81.59,-20.93z"/>
    <path class="fil0" d="M81.51 1243.08l32.79 0.32 44.87 -196.15 -20.62 -0.37c-0.43,0.87 -0.94,1.11 -1.1,2.24l-10.12 37.19c-3.34,14.7 -6,26.34 -9.25,40.85 -6.25,27.92 -12.35,56.26 -19.05,83.17 -8.03,-12.48 -33.88,-138.03 -38.68,-163.05l-22.06 -0.53 43.22 196.32z"/>
    <path class="fil0" d="M874.87 1222.76l0.97 -69.92 52.9 -0.87 -1.73 -16.37c-13.09,-4.51 -35.47,-1.67 -51.02,-1.98l-0.23 -65.7c4.42,-8.96 34.04,-1.25 61.12,-4.64l-0.32 -13.13 -81.24 -0.66 -1.16 191.95 86.69 0.23 -0.25 -15.08c-11.57,-0.28 -22.74,-0.18 -33.9,-0.17 -5.26,0 -10.52,0.14 -15.75,0.16 -16.86,0.06 -12.92,-0.89 -16.09,-3.82z"/>
    <path class="fil0" d="M689.73 1067.69l1.02 174.95 21.84 0.84 1.46 -175.4c3.43,-4.53 0.77,-4.18 17.5,-3.98 6.63,0.08 13.2,0.03 20,-0.03l-0.53 -14.68 -97.54 0.24 -0.1 14.33 28.63 0.19c13.97,0.1 3.74,-0.65 7.72,3.53z"/>
    <polygon class="fil0" points="457.67,1181.27 479.59,1180.26 479.36,1206.84 458.38,1206.84 "/>
    <polygon class="fil0" points="1122.48,1207.54 1144.39,1207.54 1144.93,1189.86 1123.55,1190.06 "/>
    <path class="fil0" d="M1122.28 1082.05c1.68,10.58 2.51,18.38 3.82,29.47 6.69,0.47 13.28,0.12 19.97,0.6 2.07,-10.04 1.14,-26.67 -1.44,-39.72 -7.53,2.29 -14.82,7.37 -22.35,9.66z"/>
    <rect class="fil0" x="653.48" y="1049.63" width="97.99" height="16.91"/>
   </g>
   <g>
    <path class="fil0" d="M800.02 1361.2c5.81,-9.41 1.9,-30.46 3.55,-43.56 3.95,8.02 7.25,15.4 10.88,24.12 9.64,23.15 6.05,18.96 17.1,19.38l0.68 -54.8c-0.5,-14.95 1.6,-9.77 -6.08,-12.99 -2.21,3.26 -1.23,0.32 -2.51,5.82l-0.57 15.27c0.1,8.08 0.13,14.61 -0.72,22.68 -3.81,-7.65 -7.31,-14.82 -10.99,-23.58 -10.48,-24.94 -5.18,-18.98 -17.29,-20.14l-0.61 55.36c0.62,15.37 -1.38,9.88 6.56,12.43z"/>
    <path class="fil0" d="M632.36 1330.83c1.14,9.71 1.84,13.12 -1.3,20.84 -7.12,8.21 -24.09,2.26 -14.03,-19.9l15.32 -0.94zm0 -26.81c2.39,3.24 0.1,-2.22 2.99,5.49 0.49,1.31 0.46,3.32 0.8,5.77l6.78 -2.78 -2.39 -16.37c-43.3,-18.93 -30.13,26.4 -30.13,26.49 -0.06,9.05 -9.76,13.16 -1.93,36.89 10.96,3.7 19.09,3.68 31.38,0.46l2.31 -27.2c9.32,-5.86 7.19,0.94 7.64,-9.31l-28.93 -2.16c-4.33,-9.29 -5.04,-7.35 -2.8,-19 8.76,-3.55 8.21,-4.45 14.28,1.72z"/>
    <path class="fil0" d="M86.58 1301.37c17.45,0.16 20.21,10.26 13.34,27.05l-13.52 1.39 0.18 -28.44zm21.92 29.71c2.11,-4.59 1.62,-2.7 2.35,-8.68 4.13,-33.65 -13.73,-29.44 -32.8,-28.99 -0.61,12.28 -0.35,24.46 -0.39,36.75 -0.12,36.81 -2.6,28.33 6.45,30.94 3.72,-6.6 2.2,-13.71 2.37,-22.98 22.29,3.66 1.8,21.93 28.03,22.81l-10.55 -22.94 4.54 -6.91z"/>
    <path class="fil0" d="M979.64 1352.75l-14.87 1.49c-0.31,-1.07 -10.34,-55.03 7.66,-54.37 11.09,0.41 9.47,11.48 9.42,22.36 -0.06,10.4 0.62,22.67 -2.2,30.52zm-19.73 7.86c22.22,5.72 30.46,2.41 30.61,-19.86 0.12,-17.26 2.67,-35.03 -5.48,-46.3 -22.85,-6.65 -31.05,-2.22 -31.27,19.91 -0.19,18.77 -2.66,34.67 6.14,46.25z"/>
    <path class="fil0" d="M1118 1317.35l4.5 -8.12 3.06 8.76 2.73 20.45 -13.63 -0.25 3.33 -20.84zm-14.84 43.76c10.59,-1.92 6.47,-2.8 9.89,-14.96l16.24 0.56c5.68,9.78 -0.58,11.15 10.45,14.52 1.94,-3.16 4.93,5.23 -0.4,-18.08 -2.83,-12.39 -7.74,-40.49 -12.65,-49.54l-11.19 -0.26 -12.28 52.85c-0.16,0.65 -1.77,8.38 -1.77,8.44 -0.26,5.52 -0.07,3.45 1.72,6.47z"/>
    <path class="fil0" d="M234.18 1318.96l4.08 -9.16c3.82,4.85 4.02,7.37 5.71,14.95 0.01,0.06 1.42,8.16 1.41,8.3 -0.13,5.91 -0.24,2.23 -1.88,5.29l-11.78 -0.15 2.45 -19.22zm-14.21 42.18c12.84,-2.32 3.62,-1.82 10.44,-14.69l16.57 -0.2c3.67,11.64 -1.08,12.59 9.57,14.92 1.73,-2.79 5.23,4.22 -0.38,-17.89 -1.5,-5.92 -2.53,-10.24 -3.87,-16.16 -2.48,-10.96 -4.15,-24.67 -8.8,-33.55l-11.22 -0.18 -13.9 60.68c-0.56,10.5 -0.55,3.14 1.6,7.07z"/>
    <path class="fil0" d="M1053.39 1328.58c-1.1,9.1 -0.16,10.78 -5.1,16.32l-3.42 -9.69c-0.42,-8.59 -2.78,-15.99 -4.37,-23.82 -2.58,-12.72 -0.21,-15.85 -10.5,-17.65 -4.74,10.35 9.19,53.19 12.36,67.58l11.17 -0.08c4.96,-8.45 6.65,-22.05 8.89,-32.15l6.02 -25.93c1.67,-15.51 0.94,-5.23 -1.86,-9.78 -10.62,4.01 -11.61,24.16 -13.19,35.2z"/>
    <path class="fil0" d="M1301.58 1302.09c-4.18,-13.72 0.19,-5.69 -7.69,-8.6 -1.84,2.84 -5.13,-3.31 0.12,17.99 3.64,14.76 7.72,41.49 12.93,49.7l7.84 0.24c4.52,-4.27 1.1,4.41 5.26,-8.28l5.41 -24.83c4.45,-19.89 9.33,-27.58 2.4,-35.01 -7.23,4.47 -7.32,15.01 -9.47,24.75 -2.19,9.95 -4.3,17.06 -6.29,25.25 -5.82,-9.79 -7.72,-32 -10.53,-41.2z"/>
    <path class="fil0" d="M421.46 1316.79c-2.5,-11.79 -0.84,-20.52 -10.75,-23.3 -2.39,3.67 -3.26,-3.72 -1.89,9.76l14.97 58.15 10.44 -0.8c3.54,-7.69 5.98,-23.33 8.06,-32.35 1.37,-5.95 2.78,-12.02 4.21,-17.99 3.9,-16.25 1.37,-13.58 -1.83,-17.01 -7.34,4.6 -11.8,34.81 -15.81,50.08 -3.9,-6.81 -5.55,-17.76 -7.41,-26.54z"/>
    <path class="fil0" d="M33.99 1354.08l0.3 -11.7 -7.68 2.43 -1.69 9.69 -13.67 -1.34c-3.18,-10.28 -3.04,-41.09 -0.27,-51.67 4.67,-1.12 10.3,-3.1 13.68,1.78 7.82,11.27 -4.95,7.57 7.2,14.03 17.95,-11.55 -11.01,-37.45 -30.41,-17.82 -1.25,9.02 -2.23,43.15 -0.53,51.32 3.1,14.92 30.17,17.09 33.08,3.28z"/>
    <path class="fil0" d="M162.13 1301.4c27.55,-0.92 18.11,0.74 21.57,-5.22 -6.29,-4.01 -15.79,-4.76 -30.82,-1.65l0.2 65.68c9.46,1.92 24.83,3.42 31.96,-1.32 -2.06,-5.87 2.92,-4.3 -9.16,-5.52 -3.01,-0.3 -10.08,0.05 -13.94,-0.08l0.41 -20.52c12.2,-5.31 14.16,3.59 17.38,-8.94l-17.82 -1.26 0.2 -21.16z"/>
    <path class="fil0" d="M497.95 1302.07c11.43,-1.77 17.85,2.43 21.73,-5.89 -6.88,-5 -20.75,-3.14 -30.73,-2.34l0.31 67.08c9.5,0.72 23.11,2.74 31.55,-2.03 -4.16,-9.25 7.31,-2.21 -23.02,-6.13l0.44 -21.32c14,-1.57 9.4,1.69 17.43,-3.9 -4.51,-7.61 3.98,-2.43 -17.87,-5.6l0.15 -19.86z"/>
    <path class="fil0" d="M1381.09 1302.01c11.4,-1.61 17.82,2.47 21.8,-5.82 -6.92,-5 -20.76,-3.14 -30.76,-2.37l0.34 67.06c11.4,0.94 24.03,2.23 31.52,-1.98 -4.13,-9.01 6.92,-2.62 -23.08,-6.04l0.54 -21.4c13.77,-1.59 9.43,1.68 17.38,-3.91 -4.64,-7.85 3.89,-2.19 -17.87,-5.68l0.14 -19.86z"/>
    <path class="fil0" d="M1202.38 1296.18c-7.23,-4.82 -26.68,-4.82 -35.06,0 4.93,3.69 -5.49,1.72 12.89,6.41 0.18,12.57 -4.31,49.76 3.94,58.8 6.76,-3.37 5.17,5.22 5.06,-26.01 -0.2,-55.93 4.66,-21.7 13.17,-39.2z"/>
    <path class="fil0" d="M319.22 1296.18c-7.33,-4.81 -26.64,-4.82 -35.1,0 7.32,5.34 -6.05,-0.35 6.23,5.08 0.26,0.11 5.64,1.05 6.66,1.31 0.22,10.06 0.15,20.13 0.13,30.19 -0.01,5.01 -0.38,11.04 -0.24,15.85 0.39,13.87 1.2,9.63 4.08,12.74 6.8,-3.32 5.19,5.23 5.06,-25.98 -0.23,-55.69 4.43,-21.82 13.19,-39.2z"/>
    <path class="fil0" d="M752.34 1293.61l-18.65 -0.29c2.9,15.66 2.48,0.37 4.55,15.93 3.62,27.13 -4.06,48.09 -4.52,52.32l18.73 -0.83c-1.8,-16.09 -2.75,3.04 -5.1,-14.86 -3.8,-29 4.72,-49.94 4.97,-52.28z"/>
    <path class="fil0" d="M371.93 1293.28l-18.73 0.59c2.58,14.72 3.18,0.28 4.96,15.36 3.61,30.78 -4.61,48.84 -4.86,51.94l18.73 -0.03c-2.06,-17.36 -3.15,1.06 -5.06,-15.35 -3.62,-31.02 4.19,-46.81 4.96,-52.51z"/>
    <path class="fil0" d="M1255.02 1293.29l-18.71 0.54c2.84,14.95 3.29,0.22 5.01,15.4 3.61,31.76 -4.59,48.48 -4.91,51.93l18.76 -0.01c-2.04,-17.34 -3.15,1.04 -5.04,-15.36 -3.55,-30.84 4.24,-47.25 4.89,-52.5z"/>
    <path class="fil0" d="M881.01 1362.91c5.81,-9.41 1.9,-30.46 3.55,-43.56 3.95,8.02 7.25,15.4 10.88,24.12 9.64,23.15 6.05,18.96 17.1,19.38l0.68 -54.8c-0.5,-14.95 1.6,-9.77 -6.08,-12.99 -2.21,3.26 -1.23,0.32 -2.51,5.82l-0.57 15.27c0.1,8.08 0.13,14.61 -0.72,22.68 -3.81,-7.65 -7.31,-14.82 -10.99,-23.58 -10.48,-24.94 -5.18,-18.98 -17.29,-20.14l-0.61 55.36c0.62,15.37 -1.38,9.88 6.56,12.43z"/>
   </g>
  </g>
 </g>
</svg>
