<?xml version="1.0" encoding="UTF-8"?>
<!DOCTYPE svg PUBLIC "-//W3C//DTD SVG 1.1//EN" "http://www.w3.org/Graphics/SVG/1.1/DTD/svg11.dtd">
<!-- Creator: CorelDRAW -->
<svg xmlns="http://www.w3.org/2000/svg" xml:space="preserve" width="164.691mm" height="159.92mm" version="1.1" style="shape-rendering:geometricPrecision; text-rendering:geometricPrecision; image-rendering:optimizeQuality; fill-rule:evenodd; clip-rule:evenodd"
viewBox="0 0 1973.57 1916.4"
 xmlns:xlink="http://www.w3.org/1999/xlink"
 xmlns:xodm="http://www.corel.com/coreldraw/odm/2003">
 <defs>
  <style type="text/css">
   <![CDATA[
    .fil0 {fill:black}
   ]]>
  </style>
 </defs>
 <g id="Layer_x0020_1">
  <metadata id="CorelCorpID_0Corel-Layer"/>
  <g id="_2209640328848">
   <path class="fil0" d="M991.75 1315.35c-11.64,-5.92 -141.34,-135.84 -145.62,-145.74l289.9 1.16 -144.27 144.58zm226.63 -833.91l-0.16 88.75c-8.74,-3.34 -6.98,-3.5 -15.48,-7.74 -3.85,-10.15 -12.51,-15.82 -23.16,-26.43 -9.46,-9.42 -16.28,-16.22 -25.73,-25.7 -12.41,-12.46 -41.68,-38.3 -50.21,-53.15l109.84 -0.14c3.41,10.46 4.92,9.44 4.9,24.41zm-21.97 83.12c16.53,34.78 22.14,4.53 21.86,67.48 -0.13,29.38 -0.03,58.78 -0.03,88.16 0,38.83 7.24,52.4 -14,72.91l-86.46 86.18c-29.52,29.6 -24.33,32.76 -52.32,33.05 -48.63,0.49 -129.03,3.95 -174.49,-1.82 -1.68,-4.78 1.03,-0.69 -4.63,-7.89l-97.27 -97.26c-14.65,-14.62 -27,-18.58 -27.32,-44.48 -0.59,-46.46 0.58,-93.37 0.18,-139.93 -0.36,-42.47 5.51,-37.31 55.1,-86.5 23.23,-23.05 45.72,-48.36 69.64,-69.91 18.42,-16.59 104.49,-8.16 134.48,-8.16 80.48,-0 59.55,-3.36 102.82,39.81 12.52,12.48 22.45,22.32 34.94,34.83 7.95,7.97 27.17,30.64 37.5,33.56zm-285.5 364.97c5.91,-7.68 -10.47,-6.18 11.07,-6.31l149.21 0.11c-17.08,26.41 -54.97,47.68 -68.15,74.33 -25.44,6.55 -34.19,-12.81 -50.4,-29 -9.81,-9.8 -31.57,-35.18 -41.72,-39.13zm215.3 70.08l-110.92 1.03c12.41,-19.46 46.22,-48.35 62.8,-65.6 16.14,-16.79 19.23,-11.99 49.54,-11.81 22.28,0.13 44.59,-0.3 66.86,0.24 3.28,10.7 -57.13,55.04 -64.64,72.92l-3.64 3.22zm88.15 -88.42l-111.44 -0.86 115.26 -112.68 0.15 91.52 -0.55 14.54 -3.43 7.48zm22.05 -21.48c-6.57,-6.13 -6.71,4.58 -6.92,-18.92 -0.42,-65.32 -8.13,-79.75 17.65,-104.57 12.55,-12.09 47.35,-50.54 59.77,-56.68l-0.19 108.09c-11.27,7.06 -24.15,22.8 -35.98,34.64 -11.77,11.78 -28.6,24.14 -34.33,37.44zm71.19 -196.07c-32.4,18.35 -47.28,51.9 -78.04,70.93l0.38 -159.9c28.58,17.84 39.25,47.97 68.12,61.3 1.77,6.17 -0.24,-0.61 3.14,6.1 0.64,1.28 2.32,4.04 3.34,6.7 3.35,8.73 1.3,7.46 3.06,14.87zm1.54 -35.3c-17.93,-4.86 -25.83,-18.97 -37.49,-30.73 -47.86,-48.27 -42.27,-29.56 -42.2,-91.05l0.57 -47.5c2.3,-9.6 0.06,-5.31 5.71,-10.59 1.86,6.03 -1.18,-0.22 3.09,6.14l27 27.65c11.27,11.26 20.16,19.58 31.44,31 22.08,22.34 2.18,66.88 11.88,115.08zm-767.76 475.09l1.01 -205.31c18.37,8.06 86.18,81.65 104.65,100.07 18.03,17.98 33.44,33.4 51.43,51.41 15.54,15.55 37.7,35.08 49.88,51.11l-206.96 2.72zm139.13 -272.5l134.35 133.43c5.58,4.88 7.91,-7.03 3.43,7.58l-144.18 0.23c-7.71,-21.06 -4.02,-120.95 -2.49,-148.13 17.99,2.42 1.82,-0.82 8.89,6.88zm103.4 62.97c25.72,-2.35 101.17,-6.89 116.94,8.4 15.92,15.43 55.04,52.25 65.13,67.48 -20.67,1.77 -41.62,0.85 -62.38,0.91 -28.68,0.08 -40.18,5.25 -56.33,-11.2 -17.52,-17.86 -51.07,-47.9 -63.35,-65.59zm-21.72 -125.59c11.67,3.47 104.97,98.29 115.54,112.73l-87.99 1.18c-33.99,0 -28.12,-8.18 -27.83,-41.35 0.22,-24.17 -0.28,-48.42 0.28,-72.57zm-88.58 -88.81c13.21,5.21 50.49,47.04 63.6,59.5 18.32,17.39 14.13,18.35 13.87,50.37 -0.19,22.8 -0.02,45.65 -0.04,68.45 -18.94,-8.3 -52.25,-46.57 -67.26,-61.7 -15.08,-15.2 -10.48,-22.76 -10.36,-50.79 0.09,-21.94 -0.16,-43.88 0.19,-65.82zm-0.09 -26.01c5.89,-15.96 22.54,-26.79 35.58,-40.25 13.5,-13.93 23.51,-29.51 41.31,-37.73l0.68 157.04c-12.52,-5.32 -5.83,-0.1 -22.77,-17.72 -19.23,-19.99 -45.37,-40.52 -54.79,-61.35zm0.58 -23.43c-4.2,-109.05 -6.74,-99.66 33.23,-139.8 9.59,-9.62 33.75,-36.95 43.77,-40.88l0.65 86.87c-0.1,24.37 -6.95,26.77 -18.8,38.38 -13.56,13.28 -43.28,46.76 -58.85,55.43zm88.44 -88.51l-0.57 -90.06c0.05,-33.13 15.76,-26.45 101.24,-25.12l13.56 0.43c-6.56,13.18 -103.37,110.57 -114.23,114.76zm-211.15 -136.55l-0.5 7.89c-10.32,0.75 2.29,-2.37 -10.52,0.86l1.26 -206.84c20.16,-5.8 179.14,-3.91 208.25,-1.74 -2.07,12.49 0.9,3.55 -6.75,7.76 -3.73,8.83 0.1,0.49 -6.47,9.12 -5.06,6.64 -3.18,1.53 -6.99,10.17 -19.28,10.21 -70.96,67.75 -90.46,87.1 -15.93,15.81 -74.63,78.34 -87.83,85.68zm26.99 24.1c25.07,-12.98 42.44,-50.25 68.15,-59.7 0.36,28.58 0.14,57.17 0.15,85.76 0.01,78.35 4.58,49.28 -78.25,134.96 -11.42,11.81 -10.63,15.67 -26.02,20.9 -0.2,-39.6 -7.35,-118.83 4.59,-150.5l31.39 -31.42zm-13.98 199.63c29.74,-13.9 52.3,-59.14 81.73,-74.62l0.56 199.79c-25,-9.7 -34.21,-37.21 -57.2,-48.77 -2.03,-5.56 0.78,-1.01 -4.81,-8.26 -7.95,-10.32 -31.56,-28.23 -40.03,-43.38l16.87 -18.41c4.74,-7.12 1.08,0.97 2.87,-6.36zm7.43 89.64c10.15,21.4 65.37,63.4 72.08,77.21 6.3,12.98 3.13,122.21 2.42,144.85 -26.81,-14.92 -62.89,-69.54 -89.25,-82.39 -1.72,-6.42 1.54,0.79 -3.07,-5.97 -10.26,-15.04 -9.29,-3.33 -11.67,-22.05l0.46 -133.17c17.51,8.92 16.44,18.38 29.03,21.52zm215.47 369.75c-5.88,-12.44 -9.5,-13.9 -19.3,-23.57 -14.25,-14.06 -57.06,-54.55 -63.74,-66.4 28.35,-0.74 57.09,-0.27 85.49,-0.28 40.79,-0.01 50.88,-7.68 73.22,15.81 27.62,29.05 58.22,59.98 86.75,86.68l-148.94 0.71c-0.97,-5.28 1.44,-2.95 -5.14,-8.79 -5.54,-4.91 -3.36,-2.97 -8.35,-4.16zm217.66 3.21c-8.73,4.55 -7.88,5.59 -16.49,9.41l-100.18 -100.86 202.73 -2c-13.11,27.36 -44.04,39.28 -58.15,65.5 -6.02,2.48 1.01,-2.14 -8.21,5.07l-19.69 22.88zm46.82 -16.57c21.56,-12.11 50.13,-48.27 69.84,-67.31 15.15,-14.65 33.96,-9.59 61.13,-9.57l80.82 0.29c13.79,4.68 3.33,-3.13 11.6,7.91 -13.14,4.2 -72.13,68.48 -86.3,83.24 -10.46,10.9 -10.56,12.77 -31.55,13.06 -13.3,0.19 -27.26,-0.26 -40.68,-0.27 -28.13,-0 -56.99,0.69 -85.03,-0.38 7.05,-15.05 14.33,-14.18 20.17,-26.97zm141.44 -668.92c1.98,14.2 -8.56,10.31 -24.87,10.04l-66.66 -0.18c-21.23,-1.46 -12.52,-3.64 -27.56,-11.45 -4.45,-11.33 -21.68,-24.94 -30.63,-33.88 -10.52,-10.51 -22.05,-19.08 -28.7,-31.78 24.55,-1.89 99.87,-6.64 115.21,7.71 10.09,9.44 50.81,56.04 63.2,59.54zm-125.29 0.23c-0.9,11.11 3.67,6.07 -6.4,9.44l-150.44 -0.09c4.02,-10.56 4.62,-8.49 9.75,-17.74 22.21,-9.94 43.88,-54.41 70.9,-59.74 7.45,0.79 46.51,42.64 56.79,53.14l19.39 14.99zm-150.91 -12.15c-34.76,19.4 1.41,26.63 -131.22,21.15 10.89,-21.41 31.52,-26.6 41.99,-49.23 22.22,-5.09 11.6,-28.22 53.53,-28.17 27.52,0.03 57.02,-0.68 84.31,0.73 -9.99,23.4 -38.81,34.28 -48.61,55.53zm-103.29 -45.01c-20.23,10.42 -49.2,45.57 -66.98,63.28 -19.05,18.97 -46.82,50.29 -65.6,64.61 -5.32,6.63 7.66,5.6 -8.56,5.44l-0.17 -143.95 148.46 -0.64c-8.06,14.33 -1.1,4.17 -8.99,9.28l1.85 1.99zm36.47 -38.01l-146.97 -0.74c7.83,-15.9 25.49,-22.5 34.68,-40.62l19.41 -15.7c6.36,-6.58 9.97,-10.18 16.47,-16.58 10.14,-9.99 23.41,-28.58 38.34,-30.64 23.15,-3.19 111.87,-1.41 137.51,0.59 -15.33,22.89 -92.88,90.91 -99.44,103.69zm382.85 790.97c8.6,-15.13 196.16,-201.13 205.29,-204.78l0.21 20.87 0.02 168.95 -0.26 15.01 -185.81 0.29 -19.45 -0.34zm-69.82 -131.49c8.15,-16.38 22.81,-26.76 35.87,-39.74 19.34,-19.23 95.64,-98.46 107.92,-103.57l0.11 143.46 -143.91 -0.15zm170.82 -158.95c0,-21.66 11.28,-26.84 21.3,-36.72 16.74,-16.51 70.23,-72.78 82.61,-79.11l0.58 130.52c0,19.81 -9.94,23.49 -20.22,33.58 -17.87,17.53 -71.32,75.66 -84.1,79.81l-0.17 -128.09zm142.89 -300.74c9.4,3.83 137.24,131.09 144.18,142.81 -7.73,15.63 -55.71,59.24 -70.52,74.04 -15.06,15.04 -57.61,63.21 -74.38,69.89l0.73 -286.73zm-142.51 44.25c11.7,3.57 94.27,88.87 101.45,98.56 -5.58,12.3 -89.91,95.98 -101.78,101.34l0.32 -199.9zm-975.14 98.56c9.4,-14.38 131.6,-136.32 144.56,-143.18l0.24 287.64c-11.77,-5.88 -9.39,-5.78 -21.06,-17.76 -24.75,-25.41 -116.34,-112.46 -123.74,-126.7zm1078.9 -41.35c-13.61,-4.54 -73.23,-69.83 -88.86,-84.89 -22.61,-21.78 -15.28,-31.47 -15.27,-72.1 0,-27.58 -1.52,-59.72 0.74,-86.71 13.42,5.89 73.78,70.32 88.68,84.75 22.55,21.83 15.08,33.09 15.07,71.75 -0,28.72 0.82,58.64 -0.36,87.21zm-138.56 -136.64l-130.19 -129.92c-7.13,-4.82 -3.3,4.62 -7.63,-8.79l146.36 1.07 -0.34 144.39c-15.22,-1.78 -3.73,0.94 -8.2,-6.75zm-409.98 -164.84c10.71,-19.98 74.12,-73.09 97.11,-102.45 22.23,9.9 83.24,82.62 105.56,101.96l-16.09 0.93 -172.63 0.06 -13.95 -0.5zm539.61 93.09c-12.38,-4.95 -79.92,-76.96 -95.38,-92.4 -15.32,-15.3 -88.11,-82.95 -92.4,-95.4 -5.39,-3.23 -4.37,-0.69 -10.04,-6.88l50.46 -4.36c35.29,0 134.95,-2.38 156.93,1.83 3.6,25.31 5.37,195.97 -2.67,206.94 -7.21,-5.1 -3.21,-2.43 -6.91,-9.73zm-283.25 -92.66c-19.46,0 -24.21,-11.24 -35.42,-22.53 -10.03,-10.09 -17.5,-17.5 -27.54,-27.56 -18.25,-18.27 -35.34,-36.34 -52.32,-53.45 24.88,-3.31 63.21,-1.08 89.58,-1.08 39.02,-0.01 49.54,-7.43 71.76,15.29 18.56,18.97 73.5,68.46 85.09,88.76l-131.14 0.58zm-300.87 -142.93c9.4,-14.8 133.99,-139.16 147.2,-145.81 22.99,22.42 133.14,127.37 143.13,146.07l-15.17 0.55 -253.43 0.14 -21.73 -0.95zm-349.21 681.06c6.7,3.79 3.14,-1.25 10.17,6.27l1.35 281.49 252.9 0.06c33.09,-0.4 26.08,-0.15 31.04,5.37 23.81,24.57 186.57,190.57 200.35,196.62l196.93 -196.19c9.58,-9.14 17.79,-6.4 34.46,-6.24l249.49 -0.25c4.22,-27.52 1.27,-168.25 1.27,-214.75 0,-12.24 0.1,-24.52 -0.03,-36.75 -0.38,-35.48 -0.45,-25.78 4.66,-29.02 16.66,-27.8 185.83,-177.77 196.37,-202.34 -12.94,-17.95 -143.11,-144.56 -170.08,-171.51 -20.4,-20.39 -29.06,-17.32 -28.71,-56.09 0.63,-69.16 2.94,-197.05 -0.38,-255.93 -37.78,-3.84 -196.48,-1.46 -252.65,-0.9 -43.76,0.43 -36.99,-5.31 -60.11,-28.34 -57.6,-57.39 -112.44,-114.78 -171.23,-170.68 -12.35,6.53 -150.5,147.8 -172.32,169.56 -19.9,19.85 -18.69,29.85 -55.25,29.55 -52.81,-0.44 -229.43,-3.49 -259.3,1.16l-0.34 251.84c0.44,43.51 -6.25,37.77 -28.91,60.46 -29.06,29.08 -55.49,55.34 -84.53,84.42 -25.44,25.47 -64.88,60.21 -85.48,86.47 5.35,12.15 81.41,84.75 95.32,98.66 16.31,16.31 88.14,84.14 95.01,97.07z"/>
   <path class="fil0" d="M978.27 740.8c10.61,0.53 31.84,3.57 38.52,-3.01 7.31,-10.92 53.95,-217.54 53.95,-236.33l-26.1 -0.95 -33.88 146.89c-4.29,18 -5.38,37.36 -15.89,48.59l-43.64 -195.31 -25.63 -0.61c-1.04,19.82 44.04,215.12 52.69,240.73z"/>
   <g>
    <path class="fil0" d="M414.26 1529.39l3.14 -14.09c9.73,3.63 8.66,13.28 10.07,24.45l24.65 115.85 -63.11 1.31 25.25 -127.52zm-75.39 203.64l-1.02 12.48 27.18 0.75c-0.03,-10.49 -2.55,-0.75 0.8,-9.56 6.08,-15.97 -0.15,-1.23 5.38,-8.87l9.74 -42.59 78.5 -0.19 14.38 62.56 29.43 0.31c0.88,-19.94 -51.24,-247.33 -60.87,-276.33l-44.35 -0.94 -59.18 262.38z"/>
    <path class="fil0" d="M673.83 1696.45c-3.74,-4.91 -3.13,7.64 -3.93,-10.31l-0.51 -26.57 -26.04 0.93 1.33 51.11c0.75,45.26 85.07,54.35 119.79,29.96 45.23,-31.77 13.38,-94.47 -13.51,-119.49 -15.55,-14.46 -28.13,-26.34 -43.58,-40.9 -13.66,-12.88 -34.31,-26.33 -34.66,-53.08 -0.39,-29.74 23.43,-40.96 54.06,-33.11 28.45,7.29 20.96,35.64 23.66,65.69l30.69 0.59c3.35,-68.68 -6.47,-100.75 -79.62,-96 -64.49,4.19 -78.01,67.63 -45.61,108.73 12.8,16.23 27.92,28.47 44.06,44.17 9.4,9.14 37.65,35.32 45.21,46.45 43.23,63.61 -67.82,85.86 -71.33,31.81z"/>
    <path class="fil0" d="M1914.96 1744.99l-1.29 -269.61 -28.88 -2.35 -1.43 119.76c-18.38,7.41 -63.43,5.77 -82.94,1.44l-1.89 -120.55 -26.28 0.1 -0.9 271.01 27.18 1.66 0.65 -125.92c19.45,-3.83 67.14,-4.98 83.21,1.18l1.41 123.92 31.17 -0.66z"/>
    <path class="fil0" d="M1608.18 1713.11l1.25 -40.54 -25.49 0.41c-0.7,4.26 -1.02,11.47 -1.41,13.25 -3.49,16.18 3.31,-7.57 -1.62,6.19l-3.05 5.01c-1.16,35.71 -52.99,34.82 -68.02,17.98 -14.88,-16.67 -10,-196.38 -2.68,-208.29 12.62,-20.53 69.49,-22.25 70.42,13.91 4.91,5.16 3.71,-8.22 4.76,10.86l0.46 29.4 24.48 1.46c5.23,-16.95 1.92,-37.53 1.72,-55.27 -7.82,-44.32 -72.67,-53.33 -110.06,-34.63 -40.25,20.14 -29.08,82.43 -29.08,132.49 0,50.87 -10.16,114.04 23.61,137.19 34.55,23.68 108.77,13.63 114.7,-29.42z"/>
    <path class="fil0" d="M114.57 1747.39l46.09 0.45 63.07 -275.72 -28.98 -0.52c-0.6,1.22 -1.32,1.57 -1.55,3.14l-14.22 52.27c-4.69,20.66 -8.44,37.02 -13.01,57.42 -8.78,39.25 -17.36,79.09 -26.77,116.92 -11.29,-17.54 -47.62,-194.03 -54.37,-229.2l-31 -0.74 60.76 275.97z"/>
    <path class="fil0" d="M1229.8 1718.83l1.36 -98.29 74.36 -1.22 -2.44 -23.01c-18.4,-6.34 -49.86,-2.35 -71.72,-2.78l-0.32 -92.36c6.22,-12.59 47.84,-1.76 85.92,-6.52l-0.44 -18.46 -114.2 -0.93 -1.63 269.83 121.86 0.32 -0.35 -21.19c-16.27,-0.4 -31.97,-0.25 -47.66,-0.23 -7.39,0 -14.79,0.2 -22.14,0.23 -23.69,0.09 -18.16,-1.25 -22.62,-5.38z"/>
    <path class="fil0" d="M969.55 1500.85l1.43 245.92 30.7 1.18 2.05 -246.55c4.82,-6.37 1.08,-5.88 24.6,-5.59 9.32,0.12 18.56,0.05 28.11,-0.05l-0.74 -20.63 -137.11 0.34 -0.14 20.15 40.24 0.27c19.64,0.13 5.26,-0.91 10.85,4.97z"/>
    <polygon class="fil0" points="643.34,1660.5 674.16,1659.08 673.83,1696.45 644.34,1696.45 "/>
    <polygon class="fil0" points="1577.86,1697.43 1608.66,1697.43 1609.42,1672.57 1579.36,1672.86 "/>
    <path class="fil0" d="M1577.59 1521.03c2.37,14.87 3.53,25.84 5.38,41.42 9.41,0.67 18.66,0.17 28.07,0.84 2.91,-14.11 1.61,-37.49 -2.03,-55.83 -10.59,3.22 -20.83,10.36 -31.42,13.57z"/>
    <rect class="fil0" x="918.59" y="1475.46" width="137.75" height="23.77"/>
   </g>
   <g>
    <path class="fil0" d="M1124.58 1913.43c8.17,-13.23 2.67,-42.81 4.99,-61.23 5.56,11.27 10.19,21.64 15.3,33.9 13.55,32.55 8.51,26.66 24.04,27.24l0.95 -77.03c-0.7,-21.01 2.25,-13.74 -8.55,-18.26 -3.11,4.58 -1.73,0.45 -3.52,8.18l-0.81 21.47c0.14,11.35 0.18,20.54 -1.01,31.88 -5.35,-10.75 -10.27,-20.84 -15.44,-33.14 -14.73,-35.06 -7.28,-26.68 -24.31,-28.31l-0.86 77.82c0.88,21.61 -1.94,13.89 9.23,17.48z"/>
    <path class="fil0" d="M888.91 1870.74c1.61,13.65 2.58,18.44 -1.82,29.29 -10.01,11.53 -33.86,3.17 -19.72,-27.98l21.54 -1.32zm0 -37.68c3.37,4.55 0.14,-3.12 4.21,7.71 0.69,1.84 0.65,4.67 1.12,8.1l9.53 -3.9 -3.37 -23.02c-60.87,-26.61 -42.36,37.11 -42.36,37.24 -0.09,12.72 -13.73,18.5 -2.71,51.86 15.41,5.21 26.83,5.18 44.11,0.65l3.25 -38.23c13.11,-8.24 10.1,1.32 10.75,-13.08l-40.66 -3.03c-6.08,-13.05 -7.08,-10.33 -3.94,-26.71 12.31,-4.99 11.55,-6.26 20.07,2.41z"/>
    <path class="fil0" d="M121.7 1829.33c24.53,0.23 28.41,14.42 18.76,38.02l-19 1.96 0.25 -39.98zm30.82 41.76c2.97,-6.46 2.27,-3.79 3.3,-12.2 5.8,-47.3 -19.3,-41.39 -46.11,-40.75 -0.86,17.26 -0.49,34.38 -0.55,51.66 -0.17,51.75 -3.66,39.83 9.06,43.49 5.23,-9.28 3.1,-19.27 3.33,-32.3 31.33,5.14 2.53,30.83 39.4,32.06l-14.83 -32.24 6.38 -9.72z"/>
    <path class="fil0" d="M1377.08 1901.54l-20.91 2.09c-0.44,-1.51 -14.53,-77.36 10.77,-76.42 15.6,0.58 13.32,16.14 13.24,31.43 -0.08,14.62 0.88,31.86 -3.1,42.9zm-27.74 11.05c31.23,8.03 42.81,3.39 43.02,-27.92 0.17,-24.26 3.75,-49.24 -7.7,-65.08 -32.12,-9.34 -43.64,-3.11 -43.96,27.99 -0.27,26.38 -3.74,48.74 8.64,65.01z"/>
    <path class="fil0" d="M1571.56 1851.78l6.32 -11.42 4.3 12.32 3.84 28.75 -19.16 -0.35 4.69 -29.29zm-20.87 61.52c14.89,-2.71 9.09,-3.93 13.9,-21.03l22.83 0.79c7.98,13.75 -0.82,15.67 14.69,20.41 2.72,-4.45 6.93,7.35 -0.56,-25.41 -3.98,-17.41 -10.88,-56.92 -17.78,-69.63l-15.73 -0.37 -17.26 74.29c-0.22,0.92 -2.49,11.78 -2.49,11.86 -0.36,7.76 -0.1,4.85 2.41,9.1z"/>
    <path class="fil0" d="M329.19 1854.06l5.74 -12.88c5.37,6.82 5.66,10.36 8.03,21.01 0.02,0.09 1.99,11.47 1.99,11.66 -0.19,8.31 -0.34,3.13 -2.64,7.43l-16.56 -0.21 3.45 -27.02zm-19.98 59.3c18.04,-3.27 5.09,-2.56 14.68,-20.65l23.29 -0.29c5.16,16.37 -1.52,17.7 13.45,20.97 2.44,-3.92 7.35,5.93 -0.53,-25.15 -2.11,-8.32 -3.56,-14.39 -5.44,-22.71 -3.49,-15.4 -5.84,-34.68 -12.38,-47.16l-15.78 -0.26 -19.54 85.3c-0.79,14.76 -0.77,4.42 2.25,9.94z"/>
    <path class="fil0" d="M1480.74 1867.58c-1.55,12.79 -0.23,15.16 -7.17,22.94l-4.81 -13.63c-0.59,-12.07 -3.91,-22.47 -6.14,-33.48 -3.62,-17.89 -0.3,-22.28 -14.76,-24.81 -6.66,14.55 12.91,74.77 17.37,95l15.69 -0.11c6.97,-11.88 9.35,-31 12.5,-45.19l8.47 -36.46c2.35,-21.81 1.31,-7.35 -2.62,-13.74 -14.93,5.63 -16.32,33.97 -18.54,49.48z"/>
    <path class="fil0" d="M1829.62 1830.34c-5.87,-19.29 0.26,-8 -10.81,-12.09 -2.59,3.99 -7.21,-4.66 0.17,25.28 5.11,20.75 10.86,58.33 18.18,69.87l11.03 0.34c6.35,-6 1.54,6.2 7.39,-11.64l7.6 -34.9c6.25,-27.95 13.12,-38.77 3.38,-49.22 -10.16,6.28 -10.29,21.1 -13.31,34.79 -3.08,13.99 -6.04,23.98 -8.84,35.49 -8.18,-13.76 -10.85,-44.98 -14.8,-57.92z"/>
    <path class="fil0" d="M592.44 1851.01c-3.52,-16.57 -1.18,-28.84 -15.11,-32.75 -3.36,5.15 -4.58,-5.22 -2.66,13.72l21.04 81.74 14.68 -1.12c4.98,-10.81 8.41,-32.8 11.34,-45.48 1.93,-8.36 3.91,-16.9 5.92,-25.29 5.48,-22.84 1.93,-19.08 -2.57,-23.91 -10.31,6.47 -16.59,48.93 -22.22,70.4 -5.49,-9.57 -7.8,-24.97 -10.42,-37.31z"/>
    <path class="fil0" d="M47.78 1903.42l0.42 -16.45 -10.8 3.41 -2.38 13.63 -19.22 -1.88c-4.46,-14.44 -4.28,-57.76 -0.39,-72.64 6.56,-1.57 14.48,-4.36 19.23,2.5 10.99,15.85 -6.96,10.64 10.12,19.73 25.24,-16.23 -15.48,-52.64 -42.75,-25.05 -1.76,12.68 -3.13,60.65 -0.74,72.15 4.36,20.97 42.41,24.03 46.5,4.61z"/>
    <path class="fil0" d="M227.9 1829.37c38.73,-1.3 25.46,1.05 30.33,-7.33 -8.84,-5.64 -22.2,-6.7 -43.32,-2.32l0.29 92.32c13.3,2.71 34.9,4.81 44.92,-1.86 -2.89,-8.25 4.11,-6.04 -12.87,-7.76 -4.23,-0.43 -14.16,0.06 -19.59,-0.11l0.58 -28.85c17.15,-7.46 19.9,5.04 24.43,-12.57l-25.05 -1.77 0.28 -29.75z"/>
    <path class="fil0" d="M699.96 1830.31c16.06,-2.49 25.09,3.41 30.55,-8.28 -9.67,-7.03 -29.16,-4.42 -43.2,-3.29l0.44 94.29c13.35,1.01 32.49,3.86 44.35,-2.85 -5.84,-13 10.27,-3.1 -32.36,-8.61l0.62 -29.97c19.68,-2.21 13.21,2.38 24.5,-5.49 -6.34,-10.69 5.6,-3.41 -25.12,-7.87l0.22 -27.92z"/>
    <path class="fil0" d="M1941.38 1830.22c16.02,-2.26 25.06,3.47 30.64,-8.19 -9.73,-7.02 -29.18,-4.42 -43.25,-3.33l0.48 94.27c16.02,1.31 33.78,3.14 44.31,-2.79 -5.8,-12.67 9.73,-3.68 -32.45,-8.49l0.76 -30.08c19.35,-2.24 13.26,2.36 24.43,-5.5 -6.52,-11.03 5.47,-3.08 -25.12,-7.98l0.19 -27.91z"/>
    <path class="fil0" d="M1690.17 1822.04c-10.17,-6.78 -37.51,-6.78 -49.29,0 6.93,5.18 -7.72,2.42 18.12,9.01 0.26,17.66 -6.06,69.94 5.54,82.65 9.51,-4.73 7.27,7.34 7.11,-36.56 -0.28,-78.62 6.55,-30.51 18.51,-55.1z"/>
    <path class="fil0" d="M448.72 1822.04c-10.3,-6.77 -37.45,-6.78 -49.34,0 10.29,7.51 -8.5,-0.49 8.75,7.14 0.36,0.16 7.92,1.48 9.37,1.84 0.31,14.14 0.21,28.3 0.18,42.44 -0.02,7.04 -0.53,15.52 -0.34,22.28 0.55,19.49 1.69,13.54 5.74,17.91 9.57,-4.67 7.29,7.36 7.11,-36.52 -0.33,-78.29 6.23,-30.68 18.54,-55.1z"/>
    <path class="fil0" d="M1057.56 1818.42l-26.21 -0.4c4.08,22.02 3.48,0.52 6.4,22.4 5.09,38.14 -5.71,67.6 -6.35,73.55l26.33 -1.16c-2.53,-22.62 -3.87,4.28 -7.17,-20.89 -5.34,-40.76 6.63,-70.21 6.99,-73.49z"/>
    <path class="fil0" d="M522.81 1817.96l-26.33 0.83c3.63,20.69 4.48,0.39 6.97,21.59 5.08,43.26 -6.49,68.66 -6.83,73.02l26.33 -0.05c-2.89,-24.4 -4.42,1.48 -7.12,-21.58 -5.09,-43.6 5.89,-65.8 6.97,-73.81z"/>
    <path class="fil0" d="M1764.18 1817.96l-26.3 0.76c4,21.02 4.62,0.3 7.05,21.65 5.08,44.64 -6.45,68.15 -6.91,73l26.37 -0.02c-2.86,-24.37 -4.42,1.46 -7.08,-21.59 -4.99,-43.35 5.96,-66.42 6.87,-73.8z"/>
    <path class="fil0" d="M1238.43 1915.83c8.17,-13.23 2.67,-42.81 4.99,-61.23 5.56,11.27 10.19,21.64 15.3,33.9 13.55,32.55 8.51,26.66 24.04,27.24l0.95 -77.03c-0.7,-21.01 2.25,-13.74 -8.55,-18.26 -3.11,4.58 -1.73,0.45 -3.52,8.18l-0.81 21.47c0.14,11.35 0.18,20.54 -1.01,31.88 -5.35,-10.75 -10.27,-20.84 -15.44,-33.14 -14.73,-35.06 -7.28,-26.68 -24.31,-28.31l-0.86 77.82c0.88,21.61 -1.94,13.89 9.23,17.48z"/>
   </g>
  </g>
 </g>
</svg>
